<svg width="192" height="60" viewBox="0 0 192 60" fill="none" xmlns="http://www.w3.org/2000/svg">
<rect x="0.5" y="0.5" width="191" height="59" rx="4.5" stroke="#9747FF" stroke-dasharray="10 5"/>
<path fill-rule="evenodd" clip-rule="evenodd" d="M34.5303 32.2803C34.2374 32.5732 33.7626 32.5732 33.4697 32.2803L30 28.8107L26.5303 32.2803C26.2374 32.5732 25.7626 32.5732 25.4697 32.2803C25.1768 31.9874 25.1768 31.5126 25.4697 31.2197L29.4697 27.2197C29.7626 26.9268 30.2374 26.9268 30.5303 27.2197L34.5303 31.2197C34.8232 31.5126 34.8232 31.9874 34.5303 32.2803Z" fill="#4A4A4A"/>
<rect x="60" y="16" width="28" height="28" rx="6" fill="#F1F1F1"/>
<path fill-rule="evenodd" clip-rule="evenodd" d="M78.5303 32.2803C78.2374 32.5732 77.7626 32.5732 77.4697 32.2803L74 28.8107L70.5303 32.2803C70.2374 32.5732 69.7626 32.5732 69.4697 32.2803C69.1768 31.9874 69.1768 31.5126 69.4697 31.2197L73.4697 27.2197C73.7626 26.9268 74.2374 26.9268 74.5303 27.2197L78.5303 31.2197C78.8232 31.5126 78.8232 31.9874 78.5303 32.2803Z" fill="#4A4A4A"/>
<rect x="104" y="16" width="28" height="28" rx="6" fill="#F0F0F0"/>
<path fill-rule="evenodd" clip-rule="evenodd" d="M122.53 32.2803C122.237 32.5732 121.763 32.5732 121.47 32.2803L118 28.8107L114.53 32.2803C114.237 32.5732 113.763 32.5732 113.47 32.2803C113.177 31.9874 113.177 31.5126 113.47 31.2197L117.47 27.2197C117.763 26.9268 118.237 26.9268 118.53 27.2197L122.53 31.2197C122.823 31.5126 122.823 31.9874 122.53 32.2803Z" fill="#4A4A4A"/>
<rect x="147" y="15" width="30" height="30" rx="7" stroke="#005BD3" stroke-width="2"/>
<path fill-rule="evenodd" clip-rule="evenodd" d="M166.53 32.2803C166.237 32.5732 165.763 32.5732 165.47 32.2803L162 28.8107L158.53 32.2803C158.237 32.5732 157.763 32.5732 157.47 32.2803C157.177 31.9874 157.177 31.5126 157.47 31.2197L161.47 27.2197C161.763 26.9268 162.237 26.9268 162.53 27.2197L166.53 31.2197C166.823 31.5126 166.823 31.9874 166.53 32.2803Z" fill="#4A4A4A"/>
</svg>
