<svg width="32" height="32" viewBox="0 0 32 32" fill="none" xmlns="http://www.w3.org/2000/svg">
<path d="M19.9697 21.0303C20.2626 21.3232 20.7374 21.3232 21.0303 21.0303C21.3232 20.7374 21.3232 20.2626 21.0303 19.9697L17.0607 16L21.0303 12.0303C21.3232 11.7374 21.3232 11.2626 21.0303 10.9697C20.7374 10.6768 20.2626 10.6768 19.9697 10.9697L16 14.9393L12.0303 10.9697C11.7374 10.6768 11.2626 10.6768 10.9697 10.9697C10.6768 11.2626 10.6768 11.7374 10.9697 12.0303L14.9393 16L10.9697 19.9697C10.6768 20.2626 10.6768 20.7374 10.9697 21.0303C11.2626 21.3232 11.7374 21.3232 12.0303 21.0303L16 17.0607L19.9697 21.0303Z" fill="#E3E3E3"/>
</svg>
