<svg width="105" height="30" viewBox="0 0 105 30" fill="none" xmlns="http://www.w3.org/2000/svg">
<path d="M36.2171 16.6517C35.324 16.1564 34.854 15.7555 34.854 15.1895C34.854 14.4584 35.4885 14.0103 36.4992 14.0103C37.6743 14.0103 38.7084 14.5056 38.7084 14.5056L39.531 11.9821C39.531 11.9821 38.7789 11.3925 36.5462 11.3925C33.4438 11.3925 31.2816 13.1849 31.2816 15.6847C31.2816 17.0998 32.2922 18.1846 33.6318 18.9629C34.713 19.5761 35.089 20.0241 35.089 20.6609C35.089 21.3448 34.5484 21.8873 33.5378 21.8873C32.0337 21.8873 30.6235 21.109 30.6235 21.109L29.7539 23.6325C29.7539 23.6325 31.0701 24.505 33.2558 24.505C36.4521 24.505 38.7319 22.9249 38.7319 20.0949C38.7789 18.5384 37.6038 17.4535 36.2171 16.6517Z" fill="white"/>
<path d="M48.9559 11.3453C47.3812 11.3453 46.1591 12.1 45.1955 13.232L45.1485 13.2085L46.5116 6.03902H42.9393L39.4844 24.2692H43.0333L44.2084 18.0431C44.6784 15.6847 45.8771 14.2461 47.0052 14.2461C47.8043 14.2461 48.1098 14.7886 48.1098 15.5668C48.1098 16.0621 48.0628 16.6517 47.9453 17.1469L46.6057 24.2928H50.1546L51.5412 16.9347C51.7057 16.1564 51.7997 15.2367 51.7997 14.5999C51.8467 12.5481 50.8126 11.3453 48.9559 11.3453Z" fill="white"/>
<path d="M59.884 11.3454C55.6065 11.3454 52.7627 15.2131 52.7627 19.5289C52.7627 22.2882 54.4549 24.5286 57.6512 24.5286C61.8582 24.5286 64.6785 20.7552 64.6785 16.3451C64.702 13.7745 63.2214 11.3454 59.884 11.3454ZM58.1448 21.7693C56.9227 21.7693 56.4291 20.7317 56.4291 19.4346C56.4291 17.3828 57.4867 14.0575 59.4139 14.0575C60.6831 14.0575 61.0826 15.1423 61.0826 16.2036C61.0826 18.4205 60.025 21.7693 58.1448 21.7693Z" fill="white"/>
<path d="M73.798 11.3454C71.4008 11.3454 70.0376 13.4679 70.0376 13.4679H69.9906L70.2021 11.5576H67.0528C66.8883 12.8547 66.6062 14.8122 66.3242 16.2979L63.8564 29.3161H67.4053L68.3924 24.0334H68.463C68.463 24.0334 69.1915 24.505 70.5547 24.505C74.7381 24.505 77.4644 20.2128 77.4644 15.8734C77.4644 13.4915 76.4068 11.3454 73.798 11.3454ZM70.4137 21.8401C69.4971 21.8401 68.9565 21.3213 68.9565 21.3213L69.5441 17.996C69.9671 15.7791 71.1187 14.2933 72.3409 14.2933C73.422 14.2933 73.751 15.3074 73.751 16.2508C73.751 18.5384 72.3879 21.8401 70.4137 21.8401Z" fill="white"/>
<path d="M82.5408 6.22768C81.4127 6.22768 80.4961 7.12386 80.4961 8.30304C80.4961 9.36431 81.1542 10.0954 82.1648 10.0954H82.2118C83.3164 10.0954 84.28 9.34072 84.3035 8.02004C84.327 6.95877 83.6219 6.22768 82.5408 6.22768Z" fill="white"/>
<path d="M77.5586 24.2692H81.131L83.5518 11.6283H79.9559L77.5586 24.2692Z" fill="white"/>
<path d="M92.5759 11.6048H90.1081L90.2257 11.0152C90.4372 9.78882 91.1423 8.70397 92.3409 8.70397C92.9755 8.70397 93.469 8.89264 93.469 8.89264L94.1741 6.10977C94.1741 6.10977 93.563 5.80318 92.2469 5.80318C90.9777 5.80318 89.7321 6.15693 88.7685 6.98236C87.5464 8.02004 86.9823 9.50582 86.7003 11.0152L86.6062 11.6048H84.9611L84.444 14.2933H86.0892L84.209 24.2692H87.7579L89.6381 14.2933H92.0824L92.5759 11.6048Z" fill="white"/>
<path d="M101.131 11.6283C101.131 11.6283 98.8987 17.2413 97.9116 20.3071H97.8646C97.7941 19.3166 96.995 11.6283 96.995 11.6283H93.2581L95.3968 23.2315C95.4438 23.4909 95.4203 23.656 95.3263 23.8211C94.9032 24.623 94.2217 25.4012 93.3991 25.9672C92.741 26.4625 91.9889 26.7691 91.4014 26.9813L92.3885 30C93.1171 29.8349 94.5977 29.2454 95.8669 28.0662C97.4885 26.5332 98.9927 24.1984 100.52 20.9911L104.868 11.6283H101.131Z" fill="white"/>
<path d="M17.5094 3.42124C17.5094 3.42124 17.1804 3.51558 16.6398 3.68066C16.5458 3.37407 16.4048 3.02032 16.2168 2.64298C15.6057 1.46379 14.6891 0.827035 13.608 0.827035C13.5375 0.827035 13.467 0.827035 13.373 0.850619C13.3495 0.803451 13.3025 0.779868 13.279 0.7327C12.8089 0.213859 12.1978 -0.0219779 11.4693 0.00160577C10.0591 0.0487732 8.64896 1.06287 7.52083 2.87882C6.72174 4.15234 6.11068 5.75603 5.94616 7.00596C4.32448 7.50122 3.19635 7.85498 3.17285 7.87856C2.35026 8.13798 2.32676 8.16156 2.23275 8.93983C2.16224 9.52942 0 26.1323 0 26.1323L17.768 29.2218V3.39766C17.6269 3.39766 17.5564 3.42124 17.5094 3.42124ZM13.3965 4.69476C12.4564 4.97776 11.4223 5.30794 10.4116 5.61452C10.6937 4.50609 11.2577 3.39766 11.9158 2.66656C12.1743 2.40714 12.5269 2.10055 12.9264 1.91188C13.326 2.7609 13.42 3.9165 13.3965 4.69476ZM11.4693 0.968537C11.7983 0.968537 12.0803 1.03929 12.3154 1.18079C11.9393 1.36946 11.5633 1.67605 11.2107 2.0298C10.3176 2.99673 9.63606 4.50609 9.35403 5.9447C8.50794 6.20412 7.66185 6.46354 6.88626 6.69937C7.40332 4.43534 9.30703 1.0157 11.4693 0.968537ZM8.74297 13.9396C8.83698 15.4489 12.8089 15.7791 13.0439 19.3402C13.2085 22.1467 11.5633 24.057 9.18952 24.1985C6.3222 24.3871 4.74752 22.6891 4.74752 22.6891L5.35859 20.0949C5.35859 20.0949 6.93327 21.2977 8.20241 21.2033C9.025 21.1562 9.33053 20.4722 9.30703 20.0006C9.18952 18.0195 5.94616 18.1375 5.73463 14.8829C5.54661 12.1472 7.33281 9.38791 11.2812 9.12849C12.8089 9.03416 13.5845 9.4115 13.5845 9.4115L12.6914 12.8075C12.6914 12.8075 11.6808 12.3359 10.4822 12.4302C8.74297 12.5481 8.71946 13.6566 8.74297 13.9396ZM14.3366 4.41176C14.3366 3.70425 14.2426 2.69015 13.9135 1.84113C14.9947 2.05339 15.5117 3.25616 15.7467 3.98725C15.3237 4.10517 14.8536 4.24667 14.3366 4.41176Z" fill="white"/>
<path d="M18.3086 29.1747L25.6884 27.3351C25.6884 27.3351 22.5156 5.80323 22.4921 5.66172C22.4686 5.52022 22.351 5.42589 22.2335 5.42589C22.116 5.42589 20.0478 5.37872 20.0478 5.37872C20.0478 5.37872 18.7786 4.15237 18.3086 3.68069V29.1747Z" fill="white"/>
</svg>
