<svg width="29" height="32" viewBox="0 0 29 32" fill="none" xmlns="http://www.w3.org/2000/svg">
<path d="M19.2105 3.80404C19.2105 3.80404 18.8505 3.90685 18.259 4.08677C18.1561 3.75263 18.0018 3.36709 17.7961 2.95584C17.1274 1.6707 16.1245 0.976727 14.9415 0.976727C14.8644 0.976727 14.7872 0.976727 14.6843 1.00243C14.6586 0.951024 14.6072 0.925321 14.5815 0.873916C14.0671 0.308454 13.3985 0.0514257 12.6013 0.0771285C11.0583 0.128534 9.51525 1.23375 8.28084 3.21287C7.40646 4.60082 6.73782 6.34861 6.55781 7.71086C4.78334 8.25062 3.54893 8.63616 3.52321 8.66187C2.62312 8.9446 2.59741 8.9703 2.49454 9.81849C2.34024 10.4611 0 28.5815 0 28.5815L19.442 31.9486V3.75263C19.3391 3.77833 19.2619 3.77833 19.2105 3.80404ZM14.7101 5.19199C13.6814 5.50042 12.5498 5.86026 11.444 6.1944C11.7526 4.98637 12.3698 3.77833 13.0899 2.98155C13.3728 2.69882 13.7585 2.36468 14.1957 2.15906C14.6329 3.08436 14.7358 4.34379 14.7101 5.19199ZM12.627 1.10524C12.987 1.10524 13.2956 1.18235 13.5528 1.33657C13.1413 1.54219 12.7299 1.87633 12.3441 2.26187C11.3669 3.31568 10.6211 4.96066 10.3125 6.52853C9.38666 6.81126 8.46086 7.094 7.6122 7.35102C8.15225 4.90926 10.2353 1.18235 12.627 1.10524ZM9.61812 15.2418C9.72098 16.8868 14.0671 17.2466 14.3243 21.1277C14.5043 24.1864 12.7041 26.2683 10.1067 26.4225C6.96928 26.6281 5.24625 24.7775 5.24625 24.7775L5.91488 21.9502C5.91488 21.9502 7.63792 23.2611 9.02663 23.1583C9.92672 23.1068 10.261 22.3615 10.2353 21.8474C10.1067 19.6884 6.55781 19.8169 6.32635 16.2699C6.12062 13.3141 8.0751 10.3068 12.3955 10.0241C14.0671 9.9213 14.9158 10.3326 14.9158 10.3326L13.9386 14.0338C13.9386 14.0338 12.8327 13.5197 11.5212 13.6225C9.61812 13.751 9.5924 14.9591 9.61812 15.2418ZM15.7387 4.88355C15.7387 4.11247 15.6359 3.00725 15.2758 2.08195C16.4588 2.31327 17.0246 3.62412 17.2817 4.4209C16.8188 4.54942 16.3045 4.70363 15.7387 4.88355Z" fill="white"/>
<path d="M20.085 31.8458L28.1601 29.841C28.1601 29.841 24.6883 6.37429 24.6626 6.22007C24.6369 6.06585 24.5083 5.96304 24.3797 5.96304C24.2511 5.96304 21.988 5.91164 21.988 5.91164C21.988 5.91164 20.5993 4.57509 20.085 4.06104V31.8458Z" fill="white"/>
</svg>
